<svg width="28" height="28" viewBox="0 0 28 28" fill="none" xmlns="http://www.w3.org/2000/svg">
<path d="M20.2754 2H7.72456C7.20643 2 6.72817 2.27609 6.46947 2.72465L0.194024 13.5944C-0.0646747 14.0429 -0.0646747 14.5951 0.194024 15.0436L6.46947 25.9134C6.72817 26.3619 7.20716 26.638 7.72456 26.638H20.2754C20.7936 26.638 21.2718 26.3619 21.5305 25.9134L27.806 15.0436C28.0647 14.5951 28.0647 14.0429 27.806 13.5944L21.5305 2.72465C21.2718 2.27609 20.7936 2 20.2754 2Z" fill="#2979FF"/>
<path d="M19.7972 22.2901H8.20283C7.80282 22.2901 7.47818 21.9655 7.47818 21.5655V7.07255C7.47818 6.67254 7.80282 6.3479 8.20283 6.3479H17.6232L20.5218 9.24649V21.5655C20.5218 21.9655 20.1972 22.2901 19.7972 22.2901Z" fill="white"/>
<path d="M17.6232 6.3479V8.52184C17.6232 8.92185 17.9479 9.24649 18.3479 9.24649H20.5218L17.6232 6.3479Z" fill="#B1CFFF"/>
<path d="M12.7427 14.1965H11.7753V11.116L10.8246 11.3936V10.6609L12.6536 10.0283H12.742L12.7427 14.1965Z" fill="#03A9F4"/>
<path d="M17.4073 12.493C17.4073 12.7944 17.3718 13.0553 17.3015 13.2763C17.2312 13.4959 17.1319 13.6792 17.0037 13.8241C16.8761 13.9691 16.7232 14.077 16.5457 14.1473C16.3681 14.2176 16.1725 14.2531 15.9587 14.2531C15.7428 14.2531 15.5457 14.2176 15.3674 14.1473C15.1891 14.077 15.0362 13.9691 14.9087 13.8241C14.7812 13.6792 14.6804 13.4959 14.6094 13.2763C14.5377 13.0553 14.5029 12.7944 14.5029 12.493V11.7314C14.5029 11.4321 14.5384 11.1712 14.6087 10.9502C14.679 10.7292 14.7783 10.5458 14.9065 10.4009C15.0341 10.256 15.187 10.148 15.3645 10.0777C15.5406 10.0067 15.737 9.97119 15.9529 9.97119C16.1667 9.97119 16.3623 10.0067 16.5406 10.077C16.7189 10.1473 16.8725 10.2553 17.0008 10.4002C17.1283 10.5451 17.2276 10.7284 17.2993 10.9495C17.3711 11.1705 17.4073 11.4314 17.4073 11.7306V12.493ZM16.4421 11.6089C16.4421 11.4429 16.4305 11.3038 16.408 11.1893C16.3848 11.077 16.3529 10.9842 16.3109 10.9132C16.2689 10.8429 16.2174 10.7922 16.1573 10.7618C16.0971 10.7313 16.0297 10.7161 15.9529 10.7161C15.8768 10.7161 15.808 10.7313 15.7478 10.7618C15.6877 10.7922 15.637 10.8429 15.5964 10.9132C15.5551 10.9835 15.5239 11.0763 15.5022 11.1893C15.4804 11.3038 15.4696 11.4429 15.4696 11.6089V12.6111C15.4696 12.7806 15.4797 12.9234 15.5022 13.0379C15.5239 13.1524 15.5565 13.2451 15.5986 13.314C15.6406 13.3843 15.692 13.4343 15.7529 13.4647C15.8138 13.4951 15.8826 13.5104 15.9587 13.5104C16.0334 13.5104 16.1 13.4951 16.1602 13.4647C16.2203 13.4343 16.2718 13.3843 16.3138 13.314C16.3558 13.2451 16.387 13.1524 16.4094 13.0379C16.4312 12.9234 16.4428 12.7814 16.4428 12.6111L16.4421 11.6089Z" fill="#03A9F4"/>
<path d="M13.4985 18.356C13.4985 18.6575 13.463 18.9183 13.3927 19.1394C13.3224 19.3589 13.2232 19.5423 13.0949 19.6872C12.9674 19.8321 12.8145 19.9401 12.6369 20.0104C12.4594 20.0807 12.2637 20.1162 12.05 20.1162C11.834 20.1162 11.6369 20.0807 11.4587 20.0104C11.2804 19.9401 11.1275 19.8321 11 19.6872C10.8724 19.5423 10.7717 19.3589 10.7007 19.1394C10.6289 18.9183 10.5941 18.6575 10.5941 18.356V17.5944C10.5941 17.2951 10.6297 17.0343 10.6999 16.8132C10.7702 16.5922 10.8695 16.4089 10.9978 16.264C11.1253 16.119 11.2782 16.0111 11.4558 15.9408C11.6333 15.8705 11.8297 15.835 12.0456 15.835C12.2594 15.835 12.455 15.8705 12.6333 15.9408C12.8116 16.0111 12.9652 16.119 13.0935 16.264C13.221 16.4089 13.3203 16.5922 13.392 16.8132C13.4637 17.0343 13.5 17.2951 13.5 17.5944V18.356H13.4985ZM12.534 17.4712C12.534 17.3053 12.5224 17.1661 12.5 17.0516C12.4768 16.9393 12.4449 16.8466 12.4029 16.7756C12.3608 16.7053 12.3094 16.6545 12.2492 16.6241C12.1891 16.5937 12.1217 16.5784 12.0449 16.5784C11.9681 16.5784 11.9 16.5937 11.8398 16.6241C11.7797 16.6545 11.7289 16.7053 11.6884 16.7756C11.6471 16.8458 11.6159 16.9386 11.5942 17.0516C11.5724 17.1661 11.5616 17.3053 11.5616 17.4712V18.4734C11.5616 18.643 11.5717 18.7857 11.5942 18.9002C11.6159 19.0147 11.6485 19.1075 11.6905 19.1763C11.7326 19.2466 11.784 19.2966 11.8449 19.327C11.9058 19.3575 11.9746 19.3727 12.0507 19.3727C12.1253 19.3727 12.192 19.3575 12.2521 19.327C12.3123 19.2966 12.3637 19.2466 12.4058 19.1763C12.4478 19.1075 12.479 19.0147 12.5014 18.9002C12.5232 18.7857 12.5348 18.6437 12.5348 18.4734V17.4712H12.534Z" fill="#03A9F4"/>
<path d="M16.6515 20.0589H15.6841V16.9784L14.7334 17.256V16.5234L16.5624 15.8907H16.6508L16.6515 20.0589Z" fill="#03A9F4"/>
</svg>
